<svg width="24" height="24" viewBox="0 0 24 24" fill="none" xmlns="http://www.w3.org/2000/svg">
<g clip-path="url(#clip0_1464_806)">
<path d="M16 2C16.183 2 16.355 2.05 16.502 2.135L16.535 2.155C16.815 2.332 17 2.645 17 3V4H18C18.7652 3.99996 19.5015 4.29233 20.0583 4.81728C20.615 5.34224 20.9501 6.06011 20.995 6.824L21 7V19C21 19.7652 20.7077 20.5015 20.1827 21.0583C19.6578 21.615 18.9399 21.9501 18.176 21.995L18 22H6C5.23479 22 4.49849 21.7077 3.94174 21.1827C3.38499 20.6578 3.04989 19.9399 3.005 19.176L3 19V7C2.99996 6.23479 3.29233 5.49849 3.81728 4.94174C4.34224 4.38499 5.06011 4.04989 5.824 4.005L6 4H7V3C6.99999 2.82173 7.04764 2.64669 7.13802 2.49302C7.22839 2.33936 7.3582 2.21264 7.514 2.126L7.607 2.08L7.673 2.055L7.773 2.026L7.88 2.007L8 2C8.05533 2 8.109 2.00433 8.161 2.013L8.283 2.042L8.323 2.054L8.383 2.077C8.711 2.212 8.951 2.517 8.993 2.883L9 3V4H15V3C15 2.73478 15.1054 2.48043 15.2929 2.29289C15.4804 2.10536 15.7348 2 16 2ZM19 9H5V18.625C5 19.33 5.386 19.911 5.883 19.991L6 20H18C18.513 20 18.936 19.47 18.993 18.785L19 18.625V9Z" fill="#065D84"/>
<path d="M9.01496 12.9999C9.01496 13.2651 8.9096 13.5195 8.72207 13.707C8.53453 13.8946 8.28018 13.9999 8.01496 13.9999C7.8799 14.0063 7.74494 13.9852 7.61824 13.938C7.49154 13.8908 7.37572 13.8184 7.27776 13.7252C7.17981 13.632 7.10176 13.5199 7.04831 13.3957C6.99487 13.2715 6.96714 13.1377 6.9668 13.0025C6.96646 12.8673 6.99352 12.7334 7.04634 12.609C7.09917 12.4845 7.17666 12.372 7.27415 12.2783C7.37163 12.1846 7.48709 12.1117 7.61356 12.0638C7.74002 12.0159 7.87487 11.9942 8.00996 11.9999C8.56696 11.9999 9.01496 12.4479 9.01496 12.9999Z" fill="#065D84"/>
<path d="M13.015 12.9999C13.015 13.2651 12.9096 13.5195 12.7221 13.707C12.5345 13.8946 12.2802 13.9999 12.015 13.9999C11.8799 14.0063 11.7449 13.9852 11.6182 13.938C11.4915 13.8908 11.3757 13.8184 11.2778 13.7252C11.1798 13.632 11.1018 13.5199 11.0483 13.3957C10.9949 13.2715 10.9671 13.1377 10.9668 13.0025C10.9665 12.8673 10.9935 12.7334 11.0463 12.609C11.0992 12.4845 11.1767 12.372 11.2741 12.2783C11.3716 12.1846 11.4871 12.1117 11.6136 12.0638C11.74 12.0159 11.8749 11.9942 12.01 11.9999C12.567 11.9999 13.015 12.4479 13.015 12.9999Z" fill="#065D84"/>
<path d="M17.0201 12.9999C17.0201 13.2651 16.9147 13.5195 16.7272 13.707C16.5397 13.8946 16.2853 13.9999 16.0201 13.9999C15.885 14.0063 15.7501 13.9852 15.6234 13.938C15.4967 13.8908 15.3808 13.8184 15.2829 13.7252C15.1849 13.632 15.1069 13.5199 15.0534 13.3957C15 13.2715 14.9723 13.1377 14.9719 13.0025C14.9716 12.8673 14.9986 12.7334 15.0515 12.609C15.1043 12.4845 15.1818 12.372 15.2793 12.2783C15.3768 12.1846 15.4922 12.1117 15.6187 12.0638C15.7451 12.0159 15.88 11.9942 16.0151 11.9999C16.5721 11.9999 17.0201 12.4479 17.0201 12.9999Z" fill="#065D84"/>
<path d="M12.0201 14.9999C12.2853 14.9999 12.5397 15.1053 12.7272 15.2928C12.9147 15.4803 13.0201 15.7347 13.0201 15.9999C13.0201 16.2651 12.9147 16.5195 12.7272 16.707C12.5397 16.8946 12.2853 16.9999 12.0201 16.9999C11.885 17.0063 11.7501 16.9852 11.6234 16.938C11.4967 16.8908 11.3808 16.8184 11.2829 16.7252C11.1849 16.632 11.1069 16.5199 11.0534 16.3957C11 16.2715 10.9723 16.1377 10.9719 16.0025C10.9716 15.8673 10.9986 15.7334 11.0515 15.609C11.1043 15.4845 11.1818 15.372 11.2793 15.2783C11.3768 15.1846 11.4922 15.1117 11.6187 15.0638C11.7451 15.0159 11.88 14.9942 12.0151 14.9999H12.0201Z" fill="#065D84"/>
<path d="M9.01496 15.9999C9.01496 16.2651 8.9096 16.5195 8.72207 16.707C8.53453 16.8946 8.28018 16.9999 8.01496 16.9999C7.8799 17.0063 7.74494 16.9852 7.61824 16.938C7.49154 16.8908 7.37572 16.8184 7.27776 16.7252C7.17981 16.632 7.10176 16.5199 7.04831 16.3957C6.99487 16.2715 6.96714 16.1377 6.9668 16.0025C6.96646 15.8673 6.99352 15.7334 7.04634 15.609C7.09917 15.4845 7.17666 15.372 7.27415 15.2783C7.37163 15.1846 7.48709 15.1117 7.61356 15.0638C7.74002 15.0159 7.87487 14.9942 8.00996 14.9999C8.56696 14.9999 9.01496 15.4479 9.01496 15.9999Z" fill="#065D84"/>
</g>
<defs>
<clipPath id="clip0_1464_806">
<rect width="24" height="24" fill="white"/>
</clipPath>
</defs>
</svg>
