<svg width="64" height="64" viewBox="0 0 64 64" fill="none" xmlns="http://www.w3.org/2000/svg">
<path d="M45.5995 22.6505C45.8262 22.8768 46.006 23.1457 46.1286 23.4416C46.2513 23.7375 46.3144 24.0547 46.3144 24.375C46.3144 24.6953 46.2513 25.0125 46.1286 25.3084C46.006 25.6043 45.8262 25.8732 45.5995 26.0995L28.537 43.162C28.3107 43.3887 28.0418 43.5685 27.7459 43.6911C27.45 43.8138 27.1328 43.8769 26.8125 43.8769C26.4922 43.8769 26.175 43.8138 25.8791 43.6911C25.5832 43.5685 25.3144 43.3887 25.088 43.162L17.7755 35.8495C17.3181 35.3922 17.0612 34.7718 17.0612 34.125C17.0612 33.4782 17.3181 32.8578 17.7755 32.4005C18.2329 31.9431 18.8532 31.6861 19.5 31.6861C20.1468 31.6861 20.7672 31.9431 21.2245 32.4005L26.8125 37.9915L42.1505 22.6505C42.3769 22.4238 42.6457 22.2441 42.9416 22.1214C43.2375 21.9987 43.5547 21.9356 43.875 21.9356C44.1953 21.9356 44.5125 21.9987 44.8084 22.1214C45.1043 22.2441 45.3732 22.4238 45.5995 22.6505ZM63.375 31.6875C63.375 37.9547 61.5166 44.0811 58.0347 49.2921C54.5528 54.5031 49.6039 58.5646 43.8138 60.9629C38.0237 63.3613 31.6524 63.9888 25.5056 62.7661C19.3588 61.5435 13.7126 58.5255 9.28107 54.0939C4.84949 49.6624 1.83155 44.0162 0.608881 37.8694C-0.613788 31.7227 0.0137297 25.3514 2.41208 19.5612C4.81043 13.7711 8.8719 8.82217 14.0829 5.34031C19.2939 1.85844 25.4203 0 31.6875 0C40.0888 0.00887195 48.1435 3.35022 54.0842 9.29085C60.0248 15.2315 63.3661 23.2862 63.375 31.6875ZM58.5 31.6875C58.5 26.3845 56.9275 21.2006 53.9813 16.7913C51.0351 12.382 46.8476 8.94535 41.9482 6.91598C37.0489 4.88661 31.6578 4.35563 26.4567 5.39019C21.2555 6.42476 16.478 8.9784 12.7282 12.7282C8.97842 16.478 6.42477 21.2555 5.39021 26.4566C4.35564 31.6578 4.88662 37.0489 6.91599 41.9482C8.94537 46.8475 12.382 51.0351 16.7913 53.9813C21.2006 56.9275 26.3845 58.5 31.6875 58.5C38.7962 58.4919 45.6113 55.6645 50.6379 50.6379C55.6645 45.6113 58.492 38.7961 58.5 31.6875Z" fill="#761C5C"/>
</svg>
