<svg width="26" height="26" viewBox="0 0 26 26" fill="none" xmlns="http://www.w3.org/2000/svg">
<g clip-path="url(#clip0_835_2640)">
<path d="M6.85858 8.6665H19.1425C19.4549 8.66647 19.7636 8.73398 20.0475 8.86443C20.3313 8.99487 20.5836 9.18516 20.7871 9.42224C20.9905 9.65932 21.1402 9.93759 21.2261 10.238C21.3119 10.5384 21.3317 10.8537 21.2842 11.1625L19.9247 19.9938C19.8066 20.7613 19.4177 21.4612 18.8283 21.9667C18.2389 22.4723 17.488 22.7501 16.7115 22.7498H9.28849C8.51218 22.7498 7.76151 22.4719 7.17234 21.9664C6.58317 21.4608 6.19441 20.7611 6.07641 19.9938L4.71683 11.1625C4.66934 10.8537 4.68919 10.5384 4.77501 10.238C4.86082 9.93759 5.01058 9.65932 5.21402 9.42224C5.41745 9.18516 5.66975 8.99487 5.95361 8.86443C6.23747 8.73398 6.54618 8.66647 6.85858 8.6665Z" stroke="#761C5C" stroke-width="1.625" stroke-linecap="round" stroke-linejoin="round"/>
<path d="M9.75 11.9167V6.5C9.75 5.63805 10.0924 4.8114 10.7019 4.2019C11.3114 3.59241 12.138 3.25 13 3.25C13.862 3.25 14.6886 3.59241 15.2981 4.2019C15.9076 4.8114 16.25 5.63805 16.25 6.5V11.9167" stroke="#761C5C" stroke-width="1.625" stroke-linecap="round" stroke-linejoin="round"/>
</g>
<defs>
<clipPath id="clip0_835_2640">
<rect width="26" height="26" fill="white"/>
</clipPath>
</defs>
</svg>
