<svg width="18" height="18" viewBox="0 0 18 18" fill="none" xmlns="http://www.w3.org/2000/svg">
<g clip-path="url(#clip0_925_1715)">
<path d="M3.75 12.75C3.75 13.1478 3.90804 13.5294 4.18934 13.8107C4.47064 14.092 4.85218 14.25 5.25 14.25C5.64782 14.25 6.02936 14.092 6.31066 13.8107C6.59196 13.5294 6.75 13.1478 6.75 12.75C6.75 12.3522 6.59196 11.9706 6.31066 11.6893C6.02936 11.408 5.64782 11.25 5.25 11.25C4.85218 11.25 4.47064 11.408 4.18934 11.6893C3.90804 11.9706 3.75 12.3522 3.75 12.75Z" stroke="#065D84" stroke-width="1.5" stroke-linecap="round" stroke-linejoin="round"/>
<path d="M11.25 12.75C11.25 13.1478 11.408 13.5294 11.6893 13.8107C11.9706 14.092 12.3522 14.25 12.75 14.25C13.1478 14.25 13.5294 14.092 13.8107 13.8107C14.092 13.5294 14.25 13.1478 14.25 12.75C14.25 12.3522 14.092 11.9706 13.8107 11.6893C13.5294 11.408 13.1478 11.25 12.75 11.25C12.3522 11.25 11.9706 11.408 11.6893 11.6893C11.408 11.9706 11.25 12.3522 11.25 12.75Z" stroke="#065D84" stroke-width="1.5" stroke-linecap="round" stroke-linejoin="round"/>
<path d="M3.75 12.75H2.25V4.5C2.25 4.30109 2.32902 4.11032 2.46967 3.96967C2.61032 3.82902 2.80109 3.75 3 3.75H9.75V12.75M6.75 12.75H11.25M14.25 12.75H15.75V8.25M15.75 8.25H9.75M15.75 8.25L13.5 4.5H9.75" stroke="#065D84" stroke-width="1.5" stroke-linecap="round" stroke-linejoin="round"/>
</g>
<defs>
<clipPath id="clip0_925_1715">
<rect width="18" height="18" fill="white"/>
</clipPath>
</defs>
</svg>
