<svg width="296" height="301" viewBox="0 0 296 301" fill="none" xmlns="http://www.w3.org/2000/svg">
<g clip-path="url(#clip0_1207_1654)">
<path d="M0 9.38622C0 6.89684 0.971901 4.50942 2.7019 2.74916C4.43189 0.988902 6.77827 0 9.22485 0L64.5739 0C67.0205 0 69.3669 0.988902 71.0969 2.74916C72.8269 4.50942 73.7988 6.89684 73.7988 9.38622C73.7988 11.8756 72.8269 14.263 71.0969 16.0233C69.3669 17.7835 67.0205 18.7724 64.5739 18.7724H36.5229C26.5413 18.7724 18.4497 26.8641 18.4497 36.8456V65.7035C18.4497 68.1929 17.4778 70.5803 15.7478 72.3406C14.0178 74.1008 11.6714 75.0897 9.22485 75.0897C6.77827 75.0897 4.43189 74.1008 2.7019 72.3406C0.971901 70.5803 0 68.1929 0 65.7035V9.38622ZM221.396 9.38622C221.396 6.89684 222.368 4.50942 224.098 2.74916C225.828 0.988902 228.175 0 230.621 0L285.97 0C288.417 0 290.763 0.988902 292.493 2.74916C294.223 4.50942 295.195 6.89684 295.195 9.38622V65.7035C295.195 68.1929 294.223 70.5803 292.493 72.3406C290.763 74.1008 288.417 75.0897 285.97 75.0897C283.524 75.0897 281.177 74.1008 279.447 72.3406C277.717 70.5803 276.745 68.1929 276.745 65.7035V36.8456C276.745 26.8641 268.654 18.7724 258.672 18.7724H230.621C228.175 18.7724 225.828 17.7835 224.098 16.0233C222.368 14.263 221.396 11.8756 221.396 9.38622ZM9.22485 225.269C11.6714 225.269 14.0178 226.258 15.7478 228.018C17.4778 229.779 18.4497 232.166 18.4497 234.655V263.513C18.4497 273.495 26.5413 281.586 36.5229 281.586H64.5739C67.0205 281.586 69.3669 282.575 71.0969 284.336C72.8269 286.096 73.7988 288.483 73.7988 290.973C73.7988 293.462 72.8269 295.849 71.0969 297.61C69.3669 299.37 67.0205 300.359 64.5739 300.359H9.22485C6.77827 300.359 4.43189 299.37 2.7019 297.61C0.971901 295.849 0 293.462 0 290.973V234.655C0 232.166 0.971901 229.779 2.7019 228.018C4.43189 226.258 6.77827 225.269 9.22485 225.269ZM285.97 225.269C288.417 225.269 290.763 226.258 292.493 228.018C294.223 229.779 295.195 232.166 295.195 234.655V290.973C295.195 293.462 294.223 295.849 292.493 297.61C290.763 299.37 288.417 300.359 285.97 300.359H230.621C228.175 300.359 225.828 299.37 224.098 297.61C222.368 295.849 221.396 293.462 221.396 290.973C221.396 288.483 222.368 286.096 224.098 284.336C225.828 282.575 228.175 281.586 230.621 281.586H258.672C268.654 281.586 276.745 273.495 276.745 263.513V234.655C276.745 232.166 277.717 229.779 279.447 228.018C281.177 226.258 283.524 225.269 285.97 225.269Z" fill="#065D84"/>
</g>
<defs>
<clipPath id="clip0_1207_1654">
<rect width="295.195" height="300.359" fill="white"/>
</clipPath>
</defs>
</svg>
