<svg width="20" height="20" viewBox="0 0 20 20" fill="none" xmlns="http://www.w3.org/2000/svg">
<path fill-rule="evenodd" clip-rule="evenodd" d="M18.3332 10.3634C18.3332 9.76039 18.2791 9.18061 18.1786 8.62402H10.1699V11.9133H14.7463C14.5492 12.9762 13.9501 13.8768 13.0495 14.4798V16.6134H15.7976C17.4056 15.133 18.3332 12.953 18.3332 10.3634Z" fill="#4285F4"/>
<path fill-rule="evenodd" clip-rule="evenodd" d="M10.1698 18.6734C12.4657 18.6734 14.3905 17.912 15.7975 16.6133L13.0493 14.4797C12.2879 14.9899 11.3139 15.2914 10.1698 15.2914C7.95501 15.2914 6.08039 13.7955 5.41171 11.7856H2.5708V13.9888C3.97 16.7679 6.8457 18.6734 10.1698 18.6734Z" fill="#34A853"/>
<path fill-rule="evenodd" clip-rule="evenodd" d="M5.41187 11.7855C5.2418 11.2753 5.14517 10.7303 5.14517 10.1699C5.14517 9.60943 5.2418 9.06444 5.41187 8.55423V6.35107H2.57096C1.99504 7.49903 1.6665 8.79774 1.6665 10.1699C1.6665 11.542 1.99504 12.8407 2.57096 13.9887L5.41187 11.7855Z" fill="#FBBC05"/>
<path fill-rule="evenodd" clip-rule="evenodd" d="M10.1698 5.04854C11.4182 5.04854 12.5391 5.47758 13.4204 6.32019L15.8593 3.88126C14.3867 2.50911 12.4618 1.6665 10.1698 1.6665C6.8457 1.6665 3.97 3.57204 2.5708 6.35111L5.41171 8.55427C6.08039 6.54437 7.95501 5.04854 10.1698 5.04854Z" fill="#EA4335"/>
</svg>
