<svg width="24" height="24" viewBox="0 0 24 24" fill="none" xmlns="http://www.w3.org/2000/svg">
<g clip-path="url(#clip0_1279_973)">
<path d="M11 14.0001V22.0001H7C6.20435 22.0001 5.44129 21.684 4.87868 21.1214C4.31607 20.5588 4 19.7957 4 19.0001V15.0001C4 14.7349 4.10536 14.4805 4.29289 14.293C4.48043 14.1055 4.73478 14.0001 5 14.0001H11ZM19 14.0001C19.2652 14.0001 19.5196 14.1055 19.7071 14.293C19.8946 14.4805 20 14.7349 20 15.0001V19.0001C20 19.7957 19.6839 20.5588 19.1213 21.1214C18.5587 21.684 17.7956 22.0001 17 22.0001H13V14.0001H19ZM16.5 2.0001C17.0905 1.99998 17.6715 2.14927 18.1888 2.43407C18.706 2.71887 19.1429 3.12992 19.4586 3.62896C19.7743 4.12801 19.9586 4.69881 19.9943 5.28824C20.03 5.87767 19.9161 6.46657 19.663 7.0001H20C20.5304 7.0001 21.0391 7.21081 21.4142 7.58589C21.7893 7.96096 22 8.46967 22 9.0001V10.0001C22 10.5305 21.7893 11.0392 21.4142 11.4143C21.0391 11.7894 20.5304 12.0001 20 12.0001H13V7.0001H11V12.0001H4C3.46957 12.0001 2.96086 11.7894 2.58579 11.4143C2.21071 11.0392 2 10.5305 2 10.0001V9.0001C2 8.46967 2.21071 7.96096 2.58579 7.58589C2.96086 7.21081 3.46957 7.0001 4 7.0001H4.337C4.11444 6.53141 3.99931 6.01895 4 5.5001C4 3.5671 5.567 2.0001 7.483 2.0001C9.238 1.9701 10.795 3.0921 11.864 4.9341L12 5.1771C13.033 3.2631 14.56 2.0631 16.291 2.0021L16.5 2.0001ZM7.5 4.0001C7.10218 4.0001 6.72064 4.15813 6.43934 4.43944C6.15804 4.72074 6 5.10227 6 5.5001C6 5.89792 6.15804 6.27945 6.43934 6.56076C6.72064 6.84206 7.10218 7.0001 7.5 7.0001H10.643C9.902 5.0951 8.694 3.9801 7.5 4.0001ZM16.483 4.0001C15.303 3.9801 14.098 5.0961 13.357 7.0001H16.5C16.8978 6.99784 17.2785 6.83765 17.5582 6.55475C17.8379 6.27185 17.9938 5.88942 17.9915 5.4916C17.9892 5.09377 17.829 4.71314 17.5462 4.43343C17.2633 4.15372 16.8808 3.99784 16.483 4.0001Z" fill="#065D84"/>
</g>
<defs>
<clipPath id="clip0_1279_973">
<rect width="24" height="24" fill="white"/>
</clipPath>
</defs>
</svg>
